<svg viewBox="-113 0 512 512" width="32" height="32" xmlns="http://www.w3.org/2000/svg"><path d="m260.425781 512h-234.238281c-14.464844 0-26.1875-11.722656-26.1875-26.1875v-361.691406c0-14.460938 11.722656-26.1875 26.1875-26.1875h234.238281c14.464844 0 26.1875 11.726562 26.1875 26.1875v361.691406c0 14.464844-11.722656 26.1875-26.1875 26.1875zm0 0" fill="#eb8f59"/><path d="m30.90625 485.8125v-361.691406c0-14.460938 11.722656-26.1875 26.1875-26.1875h-30.90625c-14.464844 0-26.1875 11.726562-26.1875 26.1875v361.691406c0 14.464844 11.722656 26.1875 26.1875 26.1875h30.90625c-14.464844 0-26.1875-11.722656-26.1875-26.1875zm0 0" fill="#e0824a"/><path d="m0 436.117188h286.613281v38.375h-286.613281zm0 0" fill="#efedee"/><path d="m0 436.117188h30.90625v38.375h-30.90625zm0 0" fill="#d9d7d8"/><path d="m260.425781 403.765625h-234.238281c-14.464844 0-26.1875-11.726563-26.1875-26.1875v-351.390625c0-14.464844 11.722656-26.1875 26.1875-26.1875h234.238281c14.464844 0 26.1875 11.722656 26.1875 26.1875v351.386719c0 14.464843-11.722656 26.191406-26.1875 26.191406zm0 0" fill="#fa9f6a"/><path d="m30.90625 377.574219v-351.386719c0-14.464844 11.722656-26.1875 26.1875-26.1875h-30.90625c-14.464844 0-26.1875 11.722656-26.1875 26.1875v351.386719c0 14.464843 11.722656 26.1875 26.1875 26.1875h30.90625c-14.464844.003906-26.1875-11.722657-26.1875-26.1875zm0 0" fill="#eb8f59"/><path d="m0 26.1875v113.253906h286.613281v-113.253906c0-14.464844-11.722656-26.1875-26.1875-26.1875h-234.238281c-14.464844 0-26.1875 11.722656-26.1875 26.1875zm0 0" fill="#85cdea"/><path d="m57.09375 0h-30.90625c-14.464844 0-26.1875 11.722656-26.1875 26.1875v113.253906h30.90625v-113.253906c0-14.464844 11.722656-26.1875 26.1875-26.1875zm0 0" fill="#78b7d2"/><g fill="#464c51"><path d="m143.308594 292.382812c-9.871094 0-19.058594-5.320312-23.980469-13.882812-2.066406-3.589844-.828125-8.175781 2.761719-10.238281 3.589844-2.066407 8.175781-.828125 10.242187 2.761719 2.253907 3.921874 6.457031 6.359374 10.976563 6.359374 4.515625 0 8.722656-2.4375 10.976562-6.359374 2.0625-3.589844 6.648438-4.828126 10.238282-2.761719 3.59375 2.0625 4.828124 6.648437 2.765624 10.238281-4.925781 8.5625-14.113281 13.882812-23.980468 13.882812zm0 0"/><path d="m209.734375 261.847656c-4.144531 0-7.5-3.359375-7.5-7.5v-11.84375c0-4.140625 3.355469-7.5 7.5-7.5 4.140625 0 7.5 3.359375 7.5 7.5v11.84375c0 4.140625-3.359375 7.5-7.5 7.5zm0 0"/><path d="m76.882812 261.847656c-4.144531 0-7.5-3.359375-7.5-7.5v-11.84375c0-4.140625 3.355469-7.5 7.5-7.5 4.140626 0 7.5 3.359375 7.5 7.5v11.84375c0 4.140625-3.359374 7.5-7.5 7.5zm0 0"/></g><path d="m215.652344 284.234375h-11.839844c-4.144531 0-7.5-3.355469-7.5-7.5 0-4.140625 3.355469-7.5 7.5-7.5h11.839844c4.144531 0 7.5 3.359375 7.5 7.5 0 4.144531-3.355469 7.5-7.5 7.5zm0 0" fill="#fd6f71"/><path d="m82.804688 284.234375h-11.84375c-4.144532 0-7.5-3.355469-7.5-7.5 0-4.140625 3.355468-7.5 7.5-7.5h11.84375c4.140624 0 7.5 3.359375 7.5 7.5 0 4.144531-3.359376 7.5-7.5 7.5zm0 0" fill="#fd6f71"/></svg>